<svg xmlns="http://www.w3.org/2000/svg" viewBox="0 0 64 64" width="64" height="64">
  <defs>
    <linearGradient id="lf-flame" x1="0" y1="1" x2="1" y2="0">
      <stop offset="0" stop-color="#ff2d00"/>
      <stop offset="0.5" stop-color="#ff7a18"/>
      <stop offset="1" stop-color="#ffc400"/>
    </linearGradient>
    <linearGradient id="lf-inner" x1="0" y1="1" x2="0" y2="0">
      <stop offset="0" stop-color="#ffd000"/>
      <stop offset="1" stop-color="#fff4cc"/>
    </linearGradient>
  </defs>
  <rect width="64" height="64" rx="16" fill="#140805"/>
  <path fill="url(#lf-flame)" d="M33 6c2 9-5 13-9 19-3 4-4 9-2 13-4-1-7-5-7-10-4 4-6 9-6 15 0 10 8 17 19 17s20-8 20-19c0-9-5-15-10-21-4-5-7-9-5-14z"/>
  <path fill="url(#lf-inner)" d="M32 33c1 5-3 7-3 12 0 4 3 7 7 7s7-3 7-8c0-5-3-8-6-12-2-3-3-5-2-8-3 2-5 5-5 8 0 0-4-1-5 1z"/>
</svg>
